<svg width="437" height="326" viewBox="0 0 437 326" fill="none" xmlns="http://www.w3.org/2000/svg">
<path d="M1.15624 269.601C0.472957 270.801 0.891666 272.327 2.09145 273.011L21.6431 284.145C22.8429 284.829 24.3694 284.41 25.0527 283.21C25.736 282.01 25.3173 280.484 24.1175 279.8L6.73825 269.903L16.6358 252.524C17.3191 251.324 16.9004 249.797 15.7006 249.114C14.5008 248.431 12.9743 248.85 12.291 250.049L1.15624 269.601ZM263.674 2.74425C262.946 5.13598 262.947 5.13607 262.948 5.1364C262.949 5.13681 262.951 5.13736 262.954 5.13818C262.959 5.13983 262.967 5.14239 262.979 5.14585C263.001 5.15278 263.036 5.16334 263.082 5.1775C263.174 5.20582 263.313 5.24857 263.496 5.30553C263.862 5.41945 264.407 5.59024 265.118 5.81632C266.54 6.2685 268.625 6.94177 271.265 7.82348C276.547 9.58704 284.051 12.1837 292.932 15.5121C310.703 22.1729 333.936 31.747 355.873 43.4205C377.865 55.1235 398.311 68.8109 410.722 83.6196C416.911 91.0053 420.991 98.5395 422.371 106.127C423.739 113.651 422.489 121.417 417.686 129.429L421.975 132C427.369 123.001 428.886 114.01 427.29 105.233C425.706 96.5197 421.092 88.2089 414.554 80.4079C401.509 64.8432 380.366 50.7907 358.222 39.0065C336.021 27.1928 312.568 17.5322 294.687 10.8302C285.741 7.47721 278.178 4.86041 272.849 3.08088C270.184 2.19104 268.077 1.51035 266.634 1.05145C265.912 0.821992 265.357 0.647969 264.98 0.530961C264.792 0.472456 264.649 0.428203 264.552 0.398399C264.503 0.383498 264.466 0.372208 264.441 0.364555C264.429 0.360729 264.419 0.357812 264.413 0.355807C264.409 0.354805 264.407 0.353986 264.405 0.353485C264.403 0.352895 264.402 0.352533 263.674 2.74425ZM417.686 129.429C412.909 137.398 403.49 145.38 390.501 152.972C377.567 160.532 361.34 167.564 343.261 173.742C307.103 186.098 263.791 194.948 225.167 197.813C205.857 199.245 187.782 199.176 172.395 197.324C156.956 195.467 144.466 191.841 136.133 186.342C127.945 180.938 123.863 173.825 124.705 164.538C125.573 154.962 131.707 142.656 145.237 127.247L141.48 123.948C127.712 139.629 120.737 152.926 119.725 164.087C118.687 175.537 123.952 184.294 133.379 190.515C142.66 196.641 156.051 200.394 171.798 202.289C187.597 204.19 206.013 204.247 225.537 202.799C264.582 199.903 308.313 190.968 344.878 178.474C363.161 172.226 379.716 165.067 393.024 157.289C406.275 149.544 416.555 141.041 421.975 132L417.686 129.429ZM145.237 127.247C158.633 111.992 170.854 105.932 182.102 105.934C193.406 105.935 204.454 112.05 215.489 122.794C226.506 133.52 237.214 148.576 247.814 165.807C258.405 183.025 268.796 202.262 279.232 221.31C289.648 240.325 300.108 259.149 310.778 275.401C321.43 291.625 332.412 305.478 343.934 314.424C355.509 323.411 367.896 327.634 381.083 323.971C394.103 320.353 407.293 309.2 420.971 288.957L416.828 286.158C403.404 306.025 391.07 316.007 379.745 319.153C368.587 322.253 357.809 318.867 347.001 310.475C336.141 302.043 325.522 288.747 314.958 272.657C304.413 256.595 294.042 237.938 283.617 218.908C273.21 199.912 262.746 180.54 252.073 163.188C241.408 145.85 230.442 130.375 218.977 119.212C207.531 108.067 195.291 100.935 182.103 100.934C168.859 100.932 155.383 108.115 141.48 123.948L145.237 127.247ZM420.971 288.957C434.642 268.725 438.883 252.538 434.531 239.958C430.161 227.329 417.534 219.455 400.349 214.845C365.927 205.611 310.127 208.621 251.432 216.555C192.601 224.508 130.407 237.478 82.9433 248.453C59.2063 253.942 39.1424 258.934 25.0112 262.554C17.9453 264.365 12.3622 265.832 8.54425 266.847C6.63523 267.355 5.16746 267.749 4.17622 268.017C3.6806 268.151 3.30411 268.254 3.05116 268.322C2.92469 268.357 2.8291 268.383 2.76495 268.4C2.73287 268.409 2.70866 268.416 2.69237 268.42C2.68422 268.423 2.67797 268.424 2.67389 268.425C2.66962 268.427 2.66735 268.427 3.32865 270.838C3.98994 273.249 3.99167 273.249 3.99538 273.248C3.99928 273.247 4.00498 273.245 4.01276 273.243C4.02832 273.239 4.05179 273.232 4.08313 273.224C4.1458 273.206 4.23989 273.181 4.36485 273.147C4.61478 273.079 4.98819 272.977 5.48068 272.844C6.46566 272.578 7.92691 272.185 9.82917 271.679C13.6337 270.668 19.2021 269.204 26.2521 267.398C40.3525 263.785 60.3775 258.803 84.0697 253.324C131.465 242.365 193.49 229.433 252.102 221.51C310.851 213.569 365.719 210.732 399.054 219.674C415.747 224.152 426.27 231.372 429.806 241.593C433.358 251.862 430.26 266.28 416.828 286.158L420.971 288.957Z" fill="black"/>
</svg>
